<svg version="1" xmlns="http://www.w3.org/2000/svg" width="346.667" height="346.667" viewBox="0 0 260.000000 260.000000"><path d="M102 66.6c-2.5.3-6.9.9-9.7 1.5l-5.3 1V192h17v-46h11.3c26.4 0 42-4.7 51.5-15.6 5.8-6.5 7.7-12.7 7.7-24.9 0-9.3-.2-10.5-3.3-16.7-5-10.2-13.7-16.6-27.7-20.3-6-1.6-31.7-2.8-41.5-1.9zm32.4 15.5c17 2.9 25.6 15 21.7 30.6-3.4 13.2-14.8 18.3-40.8 18.3H104v-24.3c0-13.4.3-24.7.7-25 1-1.1 23-.8 29.7.4zM168 178.9c0 8.5 1 10.5 5.1 9.9 3.3-.5 3.4-2.4.2-2.3-2.6 0-2.8-.3-3.1-4.8-.3-4.5-.2-4.7 2.2-4.7 1.5 0 2.6-.5 2.6-1 0-.6-1.1-1-2.5-1-1.8 0-2.5-.5-2.5-2 0-1.1-.4-2-1-2s-1 3.3-1 7.9z"/><path d="M110 175.9c0 .6 1.7 1.1 3.7 1.3 2.7.2 3.9.8 4.1 2 .3 1.4-.3 1.8-2.3 1.8-3.6 0-6.5 1.7-6.5 3.8 0 2.9 2.1 4.2 6.7 4.2h4.3v-5.4c0-3.6-.5-6-1.6-7-1.7-1.7-8.4-2.2-8.4-.7zm8 9.1c0 1.5-.7 2-2.9 2-3.1 0-4.7-1.3-3.6-3 .3-.6 1.9-1 3.6-1 2.2 0 2.9.5 2.9 2zM124.6 175.7c-1 1.1-.7 13.3.4 13.3.6 0 1-2.7 1-6.1 0-6 0-6 2.8-5.7 2.6.3 2.7.6 3 6 .4 7.7 2.2 7.4 2.2-.3 0-6 0-6 2.8-5.7 2.6.3 2.7.6 3 6 .4 7.1 2.2 7.7 2.2.7 0-7.9-.7-8.6-9.4-8.7-4.1 0-7.7.2-8 .5zM146.6 175.7c-1 1.1-.7 13.3.4 13.3.6 0 1-2.7 1-6.1 0-6 0-6 2.8-5.7 2.6.3 2.7.6 3 6 .4 7.7 2.2 7.4 2.2-.3 0-6 0-6 2.8-5.7 2.6.3 2.7.6 3 6 .4 7.1 2.2 7.7 2.2.7 0-7.9-.7-8.6-9.4-8.7-4.1 0-7.7.2-8 .5z"/></svg>